<?xml version="1.0" encoding="UTF-8" standalone="no"?>
<!DOCTYPE svg PUBLIC "-//W3C//DTD SVG 1.1//EN" "http://www.w3.org/Graphics/SVG/1.1/DTD/svg11.dtd">
<svg width="100%" height="100%" viewBox="0 0 378 1001" version="1.1" xmlns="http://www.w3.org/2000/svg" xmlns:xlink="http://www.w3.org/1999/xlink" xml:space="preserve" xmlns:serif="http://www.serif.com/" style="fill-rule:evenodd;clip-rule:evenodd;stroke-linejoin:round;stroke-miterlimit:2;">
    <g id="Layer-1" serif:id="Layer 1" transform="matrix(1,0,0,1,-143.35,-33.182)">
        <path id="path2180" d="M145.86,1033.4L143.35,944.55L163.46,943.25C174.52,942.53 186.32,941.18 189.67,940.23L195.77,938.52L195.77,851.42L205.45,850.8C219.86,849.88 220.58,847.88 222.55,803.65L224.22,766.05L233.37,765.04L242.52,764.02L242.45,577.03C242.22,511.07 241.35,433.11 240.52,403.79L238.99,350.48L249.99,346.3L248.81,272.96L254.27,268.49C259.37,264.31 259.77,262.8 260.27,245.72L260.81,227.43L271.84,226.8C279.95,226.34 284.42,224.86 288.76,221.21C292.01,218.48 295.43,216.25 296.37,216.25C299.74,216.25 310.88,189.78 312.8,177.23C313.88,170.18 315.07,153.44 315.44,140.03C316.12,115.61 319.13,108.41 322.95,103.58C324.08,102.16 324.8,81.203 325.43,66.441C326.05,51.679 327.52,37.959 328.69,35.953C329.85,33.946 330.89,32.762 330.99,33.321C331.08,33.88 331.52,39.368 331.95,45.516C333.35,65.372 331.15,93.718 333.49,104.15C334.74,109.73 344.19,113.29 342.95,144.09C342.26,160.87 345.58,178.47 346.88,183.22C348.17,187.97 350.14,195.4 351.26,199.73C352.38,204.06 356.78,211.52 361.03,216.31C367.28,223.36 370.47,225.25 377.79,226.25L386.83,227.49L386.21,242.87C385.73,254.85 386.29,258.83 388.75,260.87C390.49,262.32 391.91,266.15 391.91,269.39C391.91,273.8 393.18,275.78 396.94,277.21C401.95,279.11 401.97,279.23 402.53,310.09L403.09,341.07L408.17,342.26L413.25,343.46L414.76,376.91C416.86,423.47 418.53,568.29 417.87,646.13C417.11,735.15 417.61,763.09 419.99,765.48C421.11,766.59 426.45,767.63 431.86,767.79L441.71,768.09L441.71,851.56L446.79,852.99C449.58,853.77 455.28,854.5 459.45,854.62L467.03,854.82L467.58,899.69L468.13,940.85L494.55,941.87L520.98,942.88L520.67,950C519.97,966.22 519.87,1012.4 518.46,1033.7L145.86,1033.4ZM404.68,799.59C405.61,794.56 405.86,784.41 405.25,777.03C410.74,645.74 405.87,514.52 404.12,383.29C404.11,371.76 403.22,360.67 402.13,358.64C389.17,351.48 376.2,352.68 363.24,357.95L361.89,387.63C361.14,403.96 361.52,459.39 362.72,510.82C363.92,562.24 364.62,635.41 364.27,673.42L363.65,742.53L297.4,743.45L297.82,573.86L295.66,358.39C283.55,353.02 270.64,350.38 257.8,358.42C255.18,360.11 254.87,378.69 255.39,502.23C256.71,811.57 255.77,801.34 256.17,801.33L286.85,800.88C288.79,804.63 288.14,770.81 288.25,770.12L289.27,761.99L370.57,761.99L371.15,783.21C371.47,794.89 371.18,799.11 372.29,800.45L404.68,799.59ZM359.6,287.08L354.33,273.45C335.3,269.69 321.24,268.9 301.22,273.07C301.22,273.07 296.78,282.64 298.48,286.01C298.67,286.39 332.11,274.38 359.6,287.08ZM282.15,263.1C282.15,255.46 295.58,254.54 298.41,261.98C299.48,264.78 300.85,267.06 301.46,267.06C302.08,267.06 303.45,264.78 304.51,261.98C307,255.42 315.55,255.01 318.91,261.29C321.01,265.22 322.09,265.6 323.15,262.31C325.87,253.87 335.09,256.33 338.78,261.47C340.47,263.82 341.75,263.31 343.36,260.46C347.81,254.72 351.67,257.48 355.11,262.44C357.01,265.8 357.28,265.79 359.91,262.22C363.65,257.17 370.1,256.72 371.59,263.01C372.64,267.44 372.97,267.61 374.22,264.36C376.85,257.5 375.73,252.76 371.08,251.09C365.2,248.99 302.83,248.42 288.47,250.35C275.8,252.05 272.71,255.31 275.89,263.63C278.21,269.69 282.15,269.35 282.15,263.1ZM378.87,363.83L376.2,376.34L378.55,787.68L383.69,787.17L378.87,363.83ZM389.41,363.83L386.68,376.34L389.09,787.68L394.17,787.17L389.41,363.83ZM269.11,365.04L266.44,377.49L264.6,790.22L269.74,789.78L269.11,365.04ZM279.65,365.04L276.92,377.49L275.08,790.22L280.22,789.78L279.65,365.04ZM302.96,768.82L299.47,774.79L296.99,971.69L303.73,971.44L302.96,768.82ZM320.05,768.82L316.43,774.79L314.02,971.69L320.81,971.44L320.05,768.82ZM343.17,768.82L339.68,774.79L337.2,971.69L343.93,971.44L343.17,768.82ZM360.26,768.82L356.64,774.79L354.22,971.69L361.02,971.44L360.26,768.82ZM231.44,803.94L231.44,970.29L239.89,970.29L241.99,836.53L247.77,837.35L247.32,970.29L253.55,970.29L255.2,837.8L260.53,837.8L259.71,970.29L266.31,970.29L267.58,838.18L272.92,838.18L272.54,970.67L281.81,971.5L281.81,822.3L240.53,816.33L240.34,803.94L231.44,803.94ZM419.07,803.94L418.88,816.33L377.6,822.3L377.6,971.5L386.87,970.67L386.43,838.18L391.82,838.18L393.03,970.29L399.64,970.29L398.81,837.8L404.21,837.8L405.86,970.29L412.02,970.29L411.64,837.35L417.42,836.53L419.45,970.29L427.97,970.29L427.97,803.94L419.07,803.94ZM202.35,859.65L202.35,971.5L225.85,971.5L225.85,859.65L202.35,859.65ZM436.6,859.65L436.6,971.5L460.1,971.5L460.1,859.65L436.6,859.65ZM469,946.73L471.09,971.5L509.46,971.5L511.93,949.65L469,946.73ZM194.1,948.38L150.78,950.86L152.43,971.12L193.27,971.5L194.1,948.38ZM153.25,976.64L155.29,1026.6L506.6,1026.2L509.46,976.64L153.25,976.64ZM311.73,289.15L309.06,302.17L307.22,733.07L312.3,732.56L311.73,289.15ZM324.62,289.15L321.89,302.17L320.05,733.07L325.19,732.56L324.62,289.15ZM342.09,289.15L339.42,302.17L337.58,733.07L342.66,732.56L342.09,289.15ZM354.98,289.15L352.25,302.17L350.41,733.07L355.56,732.56L354.98,289.15ZM267.94,276.69L266.58,278.52L265.68,340.71L268.19,340.63L267.94,276.69ZM274.38,276.69L273.03,278.52L272.12,340.71L274.69,340.63L274.38,276.69ZM280.98,276.69L279.62,278.52L278.71,340.71L281.23,340.63L280.98,276.69ZM287.42,276.69L286.06,278.52L285.1,340.71L287.72,340.63L287.42,276.69ZM371.96,279.16L370.61,280.9L369.7,339.89L372.22,339.81L371.96,279.16ZM378.41,279.16L377.05,280.9L376.14,339.89L378.71,339.81L378.41,279.16ZM385,279.16L383.64,280.9L382.73,339.89L385.25,339.81L385,279.16ZM391.44,279.16L390.08,280.9L389.12,339.89L391.74,339.81L391.44,279.16ZM317.05,212.24L313.08,219.68C324.99,216.71 332.94,217.2 342.87,219.68L338.9,212.73L317.05,212.24ZM307.15,223.65L303.68,229.59C322.38,226.62 337.6,227.11 352.33,229.59L349.85,224.14L307.15,223.65ZM283.84,234.56L280.37,243.5C312.62,240.53 344.38,240.53 375.64,243.5L371.18,235.06L283.84,234.56ZM326.19,115.97L324.83,118.33L318.31,196.84L320.83,196.74L326.19,115.97ZM332.63,115.97L331.28,118.33L336.69,196.14L339.25,196.04L332.63,115.97ZM329.53,128.61L328.17,130.44L327.21,192.63L329.83,192.55L329.53,128.61ZM290.45,978.42L290.45,1024.3L307.09,1024.3L307.09,978.42L290.45,978.42ZM310.84,978.42L310.84,1024.3L327.48,1024.3L327.48,978.42L310.84,978.42ZM331.61,978.42L331.61,1024.3L348.25,1024.3L348.25,978.42L331.61,978.42ZM352,978.42L352,1024.3L368.64,1024.3L368.64,978.42L352,978.42ZM160.05,981.41L160.05,991L166.21,991L166.21,981.41L160.05,981.41ZM169.96,981.41L169.96,991L176.12,991L176.12,981.41L169.96,981.41ZM180.31,981.41L180.31,991L186.47,991L186.47,981.41L180.31,981.41ZM189.78,981.41L189.78,991L196.38,991L196.38,981.41L189.78,981.41ZM199.69,981.41L199.69,991L205.85,991L205.85,981.41L199.69,981.41ZM210.04,981.41L210.04,991L216.2,991L216.2,981.41L210.04,981.41ZM219.82,981.41L219.82,991L226.11,991L226.11,981.41L219.82,981.41ZM229.73,981.41L229.73,991L235.89,991L235.89,981.41L229.73,981.41ZM240.08,981.41L240.08,991L246.24,991L246.24,981.41L240.08,981.41ZM249.55,981.41L249.55,991L256.15,991L256.15,981.41L249.55,981.41ZM259.45,981.41L259.45,991L265.62,991L265.62,981.41L259.45,981.41ZM269.81,981.41L269.81,991L275.97,991L275.97,981.41L269.81,981.41ZM279.72,981.41L279.72,991L285.88,991L285.88,981.41L279.72,981.41ZM376.33,981.85L376.33,991.44L382.49,991.44L382.49,981.85L376.33,981.85ZM386.23,981.85L386.23,991.44L392.4,991.44L392.4,981.85L386.23,981.85ZM396.59,981.85L396.59,991.44L402.75,991.44L402.75,981.85L396.59,981.85ZM406.05,981.85L406.05,991.44L412.66,991.44L412.66,981.85L406.05,981.85ZM415.96,981.85L415.96,991.44L422.12,991.44L422.12,981.85L415.96,981.85ZM426.31,981.85L426.31,991.44L432.48,991.44L432.48,981.85L426.31,981.85ZM436.1,981.85L436.1,991.44L442.38,991.44L442.38,981.85L436.1,981.85ZM446,981.85L446,991.44L452.17,991.44L452.17,981.85L446,981.85ZM456.36,981.85L456.36,991.44L462.52,991.44L462.52,981.85L456.36,981.85ZM465.82,981.85L465.82,991.44L472.43,991.44L472.43,981.85L465.82,981.85ZM475.73,981.85L475.73,991.44L481.89,991.44L481.89,981.85L475.73,981.85ZM486.08,981.85L486.08,991.44L492.24,991.44L492.24,981.85L486.08,981.85ZM495.99,981.85L495.99,991.44L502.15,991.44L502.15,981.85L495.99,981.85ZM292.74,982.04L297.5,982.04L297.25,996.65L292.55,996.65L292.74,982.04ZM300.36,982.04L305.06,982.04L304.87,996.65L300.11,996.65L300.36,982.04ZM313.13,982.04L317.89,982.04L317.64,996.65L312.94,996.65L313.13,982.04ZM320.75,982.04L325.45,982.04L325.26,996.65L320.49,996.65L320.75,982.04ZM333.9,982.04L338.66,982.04L338.41,996.65L333.71,996.65L333.9,982.04ZM341.52,982.04L346.22,982.04L346.03,996.65L341.26,996.65L341.52,982.04ZM354.29,982.04L359.05,982.04L358.8,996.65L354.1,996.65L354.29,982.04ZM361.91,982.04L366.61,982.04L366.42,996.65L361.65,996.65L361.91,982.04ZM160.05,996.46L160.05,1006.1L166.21,1006.1L166.21,996.46L160.05,996.46ZM169.96,996.46L169.96,1006.1L176.12,1006.1L176.12,996.46L169.96,996.46ZM180.31,996.46L180.31,1006.1L186.47,1006.1L186.47,996.46L180.31,996.46ZM189.78,996.46L189.78,1006.1L196.38,1006.1L196.38,996.46L189.78,996.46ZM199.69,996.46L199.69,1006.1L205.85,1006.1L205.85,996.46L199.69,996.46ZM210.04,996.46L210.04,1006.1L216.2,1006.1L216.2,996.46L210.04,996.46ZM219.82,996.46L219.82,1006.1L226.11,1006.1L226.11,996.46L219.82,996.46ZM229.73,996.46L229.73,1006.1L235.89,1006.1L235.89,996.46L229.73,996.46ZM240.08,996.46L240.08,1006.1L246.24,1006.1L246.24,996.46L240.08,996.46ZM249.55,996.46L249.55,1006.1L256.15,1006.1L256.15,996.46L249.55,996.46ZM259.45,996.46L259.45,1006.1L265.62,1006.1L265.62,996.46L259.45,996.46ZM269.81,996.46L269.81,1006.1L275.97,1006.1L275.97,996.46L269.81,996.46ZM279.72,996.46L279.72,1006.1L285.88,1006.1L285.88,996.46L279.72,996.46ZM376.33,996.91L376.33,1006.5L382.49,1006.5L382.49,996.91L376.33,996.91ZM386.23,996.91L386.23,1006.5L392.4,1006.5L392.4,996.91L386.23,996.91ZM396.59,996.91L396.59,1006.5L402.75,1006.5L402.75,996.91L396.59,996.91ZM406.05,996.91L406.05,1006.5L412.66,1006.5L412.66,996.91L406.05,996.91ZM415.96,996.91L415.96,1006.5L422.12,1006.5L422.12,996.91L415.96,996.91ZM426.31,996.91L426.31,1006.5L432.48,1006.5L432.48,996.91L426.31,996.91ZM436.1,996.91L436.1,1006.5L442.38,1006.5L442.38,996.91L436.1,996.91ZM446,996.91L446,1006.5L452.17,1006.5L452.17,996.91L446,996.91ZM456.36,996.91L456.36,1006.5L462.52,1006.5L462.52,996.91L456.36,996.91ZM465.82,996.91L465.82,1006.5L472.43,1006.5L472.43,996.91L465.82,996.91ZM475.73,996.91L475.73,1006.5L481.89,1006.5L481.89,996.91L475.73,996.91ZM486.08,996.91L486.08,1006.5L492.24,1006.5L492.24,996.91L486.08,996.91ZM495.99,996.91L495.99,1006.5L502.15,1006.5L502.15,996.91L495.99,996.91ZM292.74,1000.6L297.5,1000.6L297.5,1021.4L292.74,1021.4L292.74,1000.6ZM300.36,1000.6L305.06,1000.6L305.06,1021.4L300.36,1021.4L300.36,1000.6ZM313.13,1000.6L317.89,1000.6L317.89,1021.4L313.13,1021.4L313.13,1000.6ZM320.75,1000.6L325.45,1000.6L325.45,1021.4L320.75,1021.4L320.75,1000.6ZM333.9,1000.6L338.66,1000.6L338.66,1021.4L333.9,1021.4L333.9,1000.6ZM341.52,1000.6L346.22,1000.6L346.22,1021.4L341.52,1021.4L341.52,1000.6ZM354.29,1000.6L359.05,1000.6L359.05,1021.4L354.29,1021.4L354.29,1000.6ZM361.91,1000.6L366.61,1000.6L366.61,1021.4L361.91,1021.4L361.91,1000.6ZM160.05,1010.9L160.05,1020.5L166.21,1020.5L166.21,1010.9L160.05,1010.9ZM169.96,1010.9L169.96,1020.5L176.12,1020.5L176.12,1010.9L169.96,1010.9ZM180.31,1010.9L180.31,1020.5L186.47,1020.5L186.47,1010.9L180.31,1010.9ZM189.78,1010.9L189.78,1020.5L196.38,1020.5L196.38,1010.9L189.78,1010.9ZM199.69,1010.9L199.69,1020.5L205.85,1020.5L205.85,1010.9L199.69,1010.9ZM210.04,1010.9L210.04,1020.5L216.2,1020.5L216.2,1010.9L210.04,1010.9ZM219.82,1010.9L219.82,1020.5L226.11,1020.5L226.11,1010.9L219.82,1010.9ZM229.73,1010.9L229.73,1020.5L235.89,1020.5L235.89,1010.9L229.73,1010.9ZM240.08,1010.9L240.08,1020.5L246.24,1020.5L246.24,1010.9L240.08,1010.9ZM249.55,1010.9L249.55,1020.5L256.15,1020.5L256.15,1010.9L249.55,1010.9ZM259.45,1010.9L259.45,1020.5L265.62,1020.5L265.62,1010.9L259.45,1010.9ZM269.81,1010.9L269.81,1020.5L275.97,1020.5L275.97,1010.9L269.81,1010.9ZM279.72,1010.9L279.72,1020.5L285.88,1020.5L285.88,1010.9L279.72,1010.9ZM376.33,1011.3L376.33,1021L382.49,1021L382.49,1011.3L376.33,1011.3ZM386.23,1011.3L386.23,1021L392.4,1021L392.4,1011.3L386.23,1011.3ZM396.59,1011.3L396.59,1021L402.75,1021L402.75,1011.3L396.59,1011.3ZM406.05,1011.3L406.05,1021L412.66,1021L412.66,1011.3L406.05,1011.3ZM415.96,1011.3L415.96,1021L422.12,1021L422.12,1011.3L415.96,1011.3ZM426.31,1011.3L426.31,1021L432.48,1021L432.48,1011.3L426.31,1011.3ZM436.1,1011.3L436.1,1021L442.38,1021L442.38,1011.3L436.1,1011.3ZM446,1011.3L446,1021L452.17,1021L452.17,1011.3L446,1011.3ZM456.36,1011.3L456.36,1021L462.52,1021L462.52,1011.3L456.36,1011.3ZM465.82,1011.3L465.82,1021L472.43,1021L472.43,1011.3L465.82,1011.3ZM475.73,1011.3L475.73,1021L481.89,1021L481.89,1011.3L475.73,1011.3ZM486.08,1011.3L486.08,1021L492.24,1021L492.24,1011.3L486.08,1011.3ZM495.99,1011.3L495.99,1021L502.15,1021L502.15,1011.3L495.99,1011.3Z" style="fill-rule:nonzero;"/>
    </g>
</svg>
