<?xml version="1.0" encoding="UTF-8" standalone="no"?>
<!DOCTYPE svg PUBLIC "-//W3C//DTD SVG 1.1//EN" "http://www.w3.org/Graphics/SVG/1.1/DTD/svg11.dtd">
<svg width="100%" height="100%" viewBox="0 0 736 525" version="1.1" xmlns="http://www.w3.org/2000/svg" xmlns:xlink="http://www.w3.org/1999/xlink" xml:space="preserve" xmlns:serif="http://www.serif.com/" style="fill-rule:evenodd;clip-rule:evenodd;stroke-linecap:round;stroke-linejoin:round;">
    <g id="Layer-1" serif:id="Layer 1" transform="matrix(1,0,0,1,266.663,-167.034)">
        <g id="g5329" transform="matrix(1,0,0,0.988446,0,7.96224)">
            <g id="g5335">
                <g id="g5366">
                    <path id="path5307" d="M-215.798,192.533L-263.406,191.23L-263.826,169.834L-239.34,169.972L-237.378,213.132L-263.169,213.453L-263.863,642.767L-237.378,642.767L-239.019,688.674L-262.896,688.652L-262.634,664.285L-214.818,664.346L-214.818,688.869L422.752,688.835L423.107,663.222L465.734,663.416L465.928,689.139L444.509,689.139L445.33,640.805L465.928,641.786L466.216,213.132L439.444,212.151L441.406,169.972L465.768,170.149L466.072,191.391L420.993,190.111L421.044,169.949L-214.818,169.972L-215.798,192.533Z" style="fill:rgb(131,173,218);stroke:black;stroke-width:17px;"/>
                    <g id="path5309" transform="matrix(0.934887,0,0,0.837196,5.62355,71.6306)">
                        <path d="M-226.29,179.013L430.157,178.986L429.635,200.38L454.957,201.409L454.371,653.173L433.303,652.363L433.473,675.989L-227.569,676.117L-225.917,654.537L-251.508,655.271L-251.111,200.38L-226.377,201.361L-226.29,179.013Z" style="fill:rgb(131,173,218);stroke:black;stroke-width:33.98px;"/>
                    </g>
                </g>
            </g>
        </g>
        <g id="text5315">
        </g>
    </g>
</svg>
